<svg xmlns="http://www.w3.org/2000/svg" version="1" viewBox="0 0 512 512">
	<path fill="#c0bcc1" d="M421 512H91c-14 0-25-11-25-25V25C66 11 77 0 91 0h330c14 0 25 11 25 25v462c0 14-11 25-25 25z"/>
	<path fill="#fff" d="M425 446H87c-3 0-4-2-4-4V37c0-2 1-4 4-4h338c3 0 4 2 4 4v405c0 2-1 4-4 4z"/>
	<path fill="#ffc350" d="M165 126v-25c5 1 8 5 8 8a8 8 0 1 0 17 0c0-13-10-23-25-26a8 8 0 1 0-16 0c-15 3-25 13-25 26 0 17 14 25 25 29v26c-5-2-9-5-9-9a8 8 0 1 0-16 0c0 13 10 23 25 26v1a8 8 0 1 0 16 0v-1c15-3 25-13 25-26 0-17-14-24-25-29zm-25-17c0-3 4-7 9-8v19c-7-4-9-7-9-11zm25 55v-20c7 4 8 7 8 11s-3 7-8 9zm165-57h-16a8 8 0 1 1 0-16h16a8 8 0 1 1 0 16zm-49 0h-58a8 8 0 1 1 0-16h58a8 8 0 1 1 0 16z"/>
	<path fill="#e1a546" d="M330 140H223a8 8 0 1 1 0-16h107a8 8 0 1 1 0 16z"/>
	<path fill="#ffc350" d="M330 173h-16a8 8 0 1 1 0-16h16a8 8 0 1 1 0 16zm-49 0h-58a8 8 0 1 1 0-16h58a8 8 0 1 1 0 16z"/>
	<path fill="#aea8af" d="M264 491h-16a12 12 0 0 1 0-24h16a12 12 0 0 1 0 24z"/>
	<path fill="#edebed" d="M256 421c-82 0-149-66-149-148V33H87c-3 0-4 2-4 4v405c0 2 1 4 4 4h338c3 0 4-2 4-4v-21H256z"/>
	<path fill="#c9c6ca" d="M388 223H124c-5 0-8 4-8 8v149c0 4 3 8 8 8h264c5 0 8-4 8-8V231c0-4-3-8-8-8zm-107 99v-33h41v33h-41zm41 17v33h-41v-33h41zm-190-50h132v33H132v-33zm149-16v-34h41v34h-41zm58 16h41v33h-41v-33zm41-16h-41v-34h41v34zm-116-34v34H132v-34h132zM132 339h132v33H132v-33zm207 33v-33h41v33h-41z"/>
</svg>