<svg xmlns="http://www.w3.org/2000/svg" width="119" height="40" version="1">
	<style>
		.st0{fill:#3f6db5}.st1{fill:#939598}
	</style>
	<g id="Layer_1">
		<g id="XMLID_1_">
			<circle id="XMLID_4_" cx="20" cy="15" r="3" class="st0"/>
			<path id="XMLID_7_" d="M20,0C9,0,0,9,0,20s9,20,20,20s20-9,20-20S31,0,20,0z M20,9.2c3.5,0,6.1,2.8,6.1,6.1 c0,4.1-4.4,8.3-6.1,9.9l-0.4-0.4c-1.9-1.7-5.7-5.6-5.7-9.5C13.9,12,16.5,9.2,20,9.2z M20.1,30.9c-3.7,0-7.5-1.1-7.5-3.1 c0-1.3,1.9-2.4,4.3-2.8l1.2,1.2c-2.5,0.3-4.1,1.1-4.1,1.6c0,0.7,2.4,1.7,6.1,1.7s6-1.1,6-1.7c0-0.5-1.6-1.3-4.3-1.6l1.3-1.2 c2.4,0.4,4.3,1.3,4.3,2.8C27.5,29.9,23.7,30.9,20.1,30.9z" class="st0"/>
		</g>
	</g>
	<g id="Layer_2">
		<g id="XMLID_10_">
			<g id="XMLID_16_">
				<path id="XMLID_17_" d="M63.4,9.1V19h-2.8v-2.5c-0.9,1.8-2.7,2.9-4.7,2.9h-0.1c-1.4,0-2.5-0.5-3.4-1.3 c-0.9-0.9-1.3-2-1.3-3.4c0-3.6,3-5.3,9.5-5.3V8.9c0-2.2-1.1-3.3-3.2-3.3h-0.1c-1.4,0-3.1,0.8-4,1.8l-1.6-1.9 C53,4,55.3,2.9,57.6,2.9C61.4,2.9,63.4,5.1,63.4,9.1z M59.5,15.2c0.8-1,1.2-2.2,1.2-3.7c-4.6,0.1-6.8,1-6.8,2.9 c0,1.4,1,2.3,2.5,2.3C57.7,16.7,58.7,16.2,59.5,15.2z" class="st0"/>
				<path id="XMLID_20_" d="M73.5,2.9c1.4-0.1,4.2,0.9,5.6,2.8l-1.6,2c-0.9-1.2-2.5-2.1-3.9-2.1h-0.2 c-2.6,0-4.2,2.1-4.2,5.4v0.1c0,3.3,1.6,5.4,4.2,5.4h0.2c1.4,0,3-0.9,3.9-2.1l1.6,1.9c-0.8,1.2-3.2,2.9-5.6,2.9 c-4.2,0-7.1-3.3-7.1-8.1V11c0-2.6,0.8-4.9,2.6-6.5c1.2-1.1,2.9-1.6,4.4-1.6H73.5z" class="st0"/>
				<path id="XMLID_22_" d="M97.7,2.9c3,0,4.8,2.2,4.8,5.7V19h-2.8v-10c0-2-1-3.2-2.6-3.2h-0.1c-2.2,0-3.4,2-3.4,5.3V19 h-2.8v-10c0-2-1-3.2-2.6-3.2h-0.1c-2.2,0-3.4,2-3.4,5.3V19h-2.8V3.3h2.8v2c0.8-1.5,2.3-2.4,4-2.4h0.1c2,0,3.6,1.1,4.3,2.9 C94.1,4,95.7,2.9,97.7,2.9L97.7,2.9z" class="st0"/>
				<path id="XMLID_24_" d="M119.1,12.1h-10.9c0.2,2.8,1.9,4.6,4.4,4.6h0.2c1.6,0,3.2-0.8,4.1-2l1.6,1.8 c-1.3,1.8-3.5,2.8-5.9,2.8c-4.3,0-7.2-3.3-7.2-8.1V11c0-2.6,0.8-4.9,2.6-6.5c1.2-1.1,2.9-1.6,4.3-1.6h0.2c2,0,3.6,0.7,4.8,2.2 c1.2,1.5,1.8,3.5,1.8,6V12.1z M112.4,5.5c-2,0-3.7,1.4-4.1,4.2h8c-0.2-2.6-1.6-4.2-3.8-4.2H112.4z" class="st0"/>
			</g>
			<g id="XMLID_2_">
				<path id="XMLID_8_" d="M53.3,25.4v11.6H52V25.4H53.3z" class="st1"/>
				<path id="XMLID_28_" d="M57.9,28.6v1.1h0c0.7-0.7,1.5-1.3,2.5-1.3c1.2,0,2.4,0.6,2.4,2.4v6.1h-1.2v-6 c0-1.1-0.5-1.5-1.4-1.5c-0.9,0-1.9,0.7-2.4,1.3v6.2h-1.2v-8.3H57.9z" class="st1"/>
				<path id="XMLID_30_" d="M71.8,25.4v9.7c0,0.6,0,1.2,0.1,1.8h-1.1l-0.2-0.8c-0.4,0.5-1.2,1-2.2,1 c-1.5,0-3.4-1-3.4-4.3c0-3.2,1.9-4.3,3.4-4.3c0.8,0,1.6,0.4,2.2,0.9l0.1,0v-4H71.8z M70.6,30.6c-0.6-0.7-1.4-1.2-2.1-1.2 c-1.3,0-2.4,0.9-2.4,3.4c0,2.1,0.9,3.3,2.4,3.3c0.7,0,1.3-0.3,2.1-1.1V30.6z" class="st1"/>
				<path id="XMLID_33_" d="M79.6,36.9v-1.1h0c-0.7,0.7-1.5,1.3-2.5,1.3c-1.2,0-2.4-0.6-2.4-2.4v-6.1h1.2v6 c0,1.1,0.5,1.5,1.4,1.5c0.9,0,1.9-0.7,2.4-1.3v-6.2h1.2v8.3H79.6z" class="st1"/>
				<path id="XMLID_35_" d="M83.4,34.8c0.5,0.8,1.3,1.3,2.4,1.3c1.3,0,1.8-0.7,1.8-1.4c0-2.1-4.9-1-4.9-4 c0-1.4,1.2-2.3,2.8-2.2c1.1,0,2.3,0.6,2.9,1.5l-0.8,0.7c-0.6-0.8-1.3-1.2-2.2-1.2c-1,0-1.5,0.5-1.5,1.2c0,1.8,4.9,0.9,4.9,4 c0,1.6-1.4,2.4-2.9,2.4c-1.3,0-2.6-0.6-3.3-1.6L83.4,34.8z" class="st1"/>
				<path id="XMLID_37_" d="M90.9,28.6v-2.7h1.2v2.7H94v1h-1.9v5.9c0,0.4,0.3,0.6,0.9,0.6c0.4,0,0.7,0,1-0.1V37 c-0.2,0.1-0.7,0.1-1.3,0.1c-1.3,0-1.8-0.3-1.8-1.4v-6.1h-1.4v-1H90.9z" class="st1"/>
				<path id="XMLID_39_" d="M95.7,28.6h1.2v1.6h0c0.6-1.1,1.3-1.8,2.7-1.8v1.2c-1.4,0-2.2,1-2.7,2.7v4.6h-1.2V28.6z" class="st1"/>
				<path id="XMLID_41_" d="M102.8,25.2v1.4h-1.2v-1.4H102.8z M101.6,28.6h1.2v8.3h-1.2V28.6z" class="st1"/>
				<path id="XMLID_44_" d="M111.9,35.1c-0.5,0.9-1.3,1.9-3.2,1.9c-1.9,0-3.6-1.3-3.6-4.3c0-2.7,1.3-4.3,3.4-4.3 c1.7,0,3.2,1.1,3.2,3.8V33h-5.4c0,1.8,1.1,3.1,2.5,3.1c1,0,1.8-0.5,2.3-1.4L111.9,35.1z M110.5,32c0-1.5-0.7-2.6-2-2.6 c-1.4,0-2.2,1-2.2,2.6H110.5z" class="st1"/>
				<path id="XMLID_47_" d="M113.8,34.8c0.5,0.8,1.3,1.3,2.4,1.3c1.3,0,1.8-0.7,1.8-1.4c0-2.1-4.9-1-4.9-4 c0-1.4,1.2-2.3,2.8-2.2c1.1,0,2.3,0.6,2.9,1.5l-0.8,0.7c-0.6-0.8-1.3-1.2-2.2-1.2c-1,0-1.5,0.5-1.5,1.2c0,1.8,4.9,0.9,4.9,4 c0,1.6-1.4,2.4-2.9,2.4c-1.3,0-2.6-0.6-3.3-1.6L113.8,34.8z" class="st1"/>
			</g>
		</g>
	</g>
</svg>